<svg width="341" height="154" viewBox="0 0 341 154" fill="none" xmlns="http://www.w3.org/2000/svg">
<path d="M81.7847 0H112.034C112.818 0 113.154 0.321953 113.154 1.07317V92.5073C113.154 133.932 96.4612 154 54.4485 154C17.9254 154 0 133.61 0 98.9463V80.1659C0 79.4146 0.336102 79.0927 1.12034 79.0927H54.9555C55.7397 79.0927 55.8564 79.0671 56.5771 79.5839C56.6567 79.641 56.9375 79.8333 56.9375 79.9284C56.9375 80.1007 56.9375 80.1659 56.9375 80.1659C56.9375 80.1659 56.9375 80.1659 56.9375 80.1659V119.548L25.7678 97.8732C25.7678 118.8 35.1786 130.39 51.9837 130.39C71.2535 130.39 80.6644 119.659 80.6644 95.7268V1.07317C80.6644 0.321953 81.0005 0 81.7847 0Z" fill="#252525"/>
<path d="M161.842 55.2418C161.403 57.3252 160.635 59.1528 159.539 60.761C156.103 65.805 149.743 68.5463 141.337 68.5463C128.8 68.5463 120.649 62.223 120.649 50.8923V45.227C120.649 34.2618 128.8 27.6096 141.629 27.6096C154.056 27.6096 161.038 34.7735 161.915 43.9842C162.171 46.5793 162.207 47.5297 162.207 50.5999C162.207 50.7827 162.097 50.8923 161.842 50.8923H135.598V51.9888C135.598 58.1659 137.901 59.7741 141.629 59.7741C145.102 59.7741 147.002 58.1293 147.66 55.1322C147.697 54.986 147.806 54.9129 148.062 54.9129H161.549C161.805 54.9129 161.878 55.0225 161.842 55.2418ZM141.483 36.3817C138.157 36.3817 135.598 38.8672 135.598 44.1304V45.1539H147.477C147.295 39.123 145.028 36.3817 141.483 36.3817Z" fill="#252525"/>
<path d="M193.381 67.0477C192.65 66.207 191.882 65.1105 191.334 63.7216C188.556 66.6822 184.133 68.5463 178.541 68.5463C170.281 68.5463 164.725 65.3664 164.725 57.508C164.725 50.7096 168.855 46.2504 181.502 44.7884C188.227 44.0208 190.603 42.7781 190.603 40.8409V39.8175C190.603 37.7706 189.031 36.3817 185.997 36.3817C182.671 36.3817 181.392 38.6844 181.246 41.4257C181.246 41.645 181.136 41.7547 180.88 41.7547H167.357C167.101 41.7547 167.028 41.645 167.028 41.4257C168.161 32.9094 175.252 27.6096 187.094 27.6096C199.265 27.6096 205.186 32.0322 205.186 41.5354V59.6645C205.186 63.1002 205.991 65.476 207.306 67.0111C207.453 67.1939 207.416 67.267 207.16 67.267H193.965C193.673 67.267 193.527 67.1939 193.381 67.0477ZM179.674 56.046C179.674 58.6776 181.063 60.0665 183.804 60.0665C187.642 60.0665 190.603 57.2887 190.603 51.6599V49.1744C189.47 49.8689 187.825 50.271 185.961 50.5999C181.684 51.3309 179.674 52.8295 179.674 56.046Z" fill="#252525"/>
<path d="M211.578 28.8888H225.468C225.723 28.8888 225.833 28.9985 225.833 29.2543V34.81C228.026 30.2778 232.558 27.6096 238.078 27.6096C246.155 27.6096 250.687 31.8129 250.687 42.0471V66.9015C250.687 67.1573 250.578 67.267 250.322 67.267H236.067C235.811 67.267 235.702 67.1573 235.702 66.9015V43.3994C235.702 39.5251 234.569 37.6975 231.681 37.6975C228.538 37.6975 226.199 40.8409 226.199 48.5165V66.9015C226.199 67.1573 226.089 67.267 225.833 67.267H211.578C211.323 67.267 211.213 67.1573 211.213 66.9015V29.2543C211.213 28.9985 211.323 28.8888 211.578 28.8888Z" fill="#252525"/>
<path d="M256.099 28.8888H269.988C270.244 28.8888 270.354 28.9985 270.354 29.2543V34.81C272.547 30.2778 277.079 27.6096 282.598 27.6096C290.676 27.6096 295.208 31.8129 295.208 42.0471V66.9015C295.208 67.1573 295.098 67.267 294.843 67.267H280.588C280.332 67.267 280.222 67.1573 280.222 66.9015V43.3994C280.222 39.5251 279.089 37.6975 276.202 37.6975C273.058 37.6975 270.719 40.8409 270.719 48.5165V66.9015C270.719 67.1573 270.61 67.267 270.354 67.267H256.099C255.843 67.267 255.734 67.1573 255.734 66.9015V29.2543C255.734 28.9985 255.843 28.8888 256.099 28.8888Z" fill="#252525"/>
<path d="M340.634 55.2418C340.196 57.3252 339.428 59.1528 338.332 60.761C334.896 65.805 328.536 68.5463 320.13 68.5463C307.593 68.5463 299.442 62.223 299.442 50.8923V45.227C299.442 34.2618 307.593 27.6096 320.422 27.6096C332.849 27.6096 339.83 34.7735 340.708 43.9842C340.963 46.5793 341 47.5297 341 50.5999C341 50.7827 340.89 50.8923 340.634 50.8923H314.391V51.9888C314.391 58.1659 316.694 59.7741 320.422 59.7741C323.894 59.7741 325.795 58.1293 326.453 55.1322C326.489 54.986 326.599 54.9129 326.855 54.9129H340.342C340.598 54.9129 340.671 55.0225 340.634 55.2418ZM320.276 36.3817C316.95 36.3817 314.391 38.8672 314.391 44.1304V45.1539H326.27C326.087 39.123 323.821 36.3817 320.276 36.3817Z" fill="#252525"/>
<path d="M124.543 149.288C124.44 149.543 124.286 149.797 123.875 149.797H108.115C107.909 149.797 107.653 149.696 107.755 149.288L132.346 78.9885C132.5 78.581 132.757 78.4791 133.014 78.4791H154.575C154.884 78.4791 155.14 78.632 155.243 78.9885L180.347 149.288C180.398 149.492 180.45 149.797 179.988 149.797H159.453C159.247 149.797 158.939 149.747 158.785 149.288L153.703 134.006H129.42L124.543 149.288ZM141.279 96.6144L133.014 122.646H149.955L141.279 96.6144Z" fill="#252525"/>
<path d="M235.159 128.52C234.953 131.628 234.337 134.582 233.31 137.231C229.922 145.84 221.913 151.546 209.233 151.546C191.111 151.546 181.973 142.071 181.973 126.941V119.045C181.973 103.915 191.213 94.4912 209.336 94.4912C222.221 94.4912 229.973 99.5854 233.105 108.755C233.978 111.353 234.491 114.257 234.645 117.466C234.645 117.721 234.491 117.873 234.132 117.873H221.349C220.989 117.873 220.784 117.721 220.784 117.517C220.733 115.632 220.373 114.002 219.809 112.626C218.32 109.06 215.291 107.227 211.338 107.227C206.05 107.227 203.021 111.047 203.021 119.402V126.584C203.021 134.582 206.563 138.81 212.108 138.81C215.753 138.81 218.474 136.926 220.014 133.869C220.784 132.341 221.246 130.507 221.297 128.469C221.297 128.265 221.503 128.113 221.862 128.113H234.645C235.005 128.113 235.159 128.265 235.159 128.52Z" fill="#252525"/>
<path d="M273.967 136.196V149.237C273.967 149.594 273.813 149.746 273.453 149.797C251.173 152.446 242.753 147.505 242.753 133.19V107.108H236.593C236.234 107.108 236.08 106.956 236.08 106.599V96.7672C236.08 96.4106 236.234 96.2578 236.593 96.2578H242.753V84.0318C242.753 83.6752 242.907 83.5224 243.267 83.5224H263.032C263.391 83.5224 263.545 83.6752 263.545 84.0318V96.2578H273.197C273.556 96.2578 273.71 96.4106 273.71 96.7672V106.599C273.71 106.956 273.556 107.108 273.197 107.108H263.545V130.287C263.545 136.043 267.704 136.654 273.505 135.738C273.813 135.687 273.967 135.839 273.967 136.196Z" fill="#252525"/>
<path d="M333.325 149.746H313.919C313.56 149.746 313.406 149.594 313.406 149.237V141.341C310.326 147.76 303.908 151.529 296.156 151.529C284.759 151.529 278.445 145.671 278.445 131.408V96.7672C278.445 96.4106 278.599 96.2578 278.958 96.2578H298.929C299.288 96.2578 299.442 96.4106 299.442 96.7672V129.523C299.493 134.922 301.085 137.47 305.089 137.47C309.556 137.47 312.841 133.089 312.841 122.391V96.7672C312.841 96.4106 312.995 96.2578 313.355 96.2578H333.325C333.684 96.2578 333.838 96.4106 333.838 96.7672V149.237C333.838 149.594 333.684 149.746 333.325 149.746Z" fill="#252525"/>
</svg>
