<svg width="665" height="148" viewBox="0 0 665 148" fill="none" xmlns="http://www.w3.org/2000/svg">
<path d="M77.315 5.34058e-05H105.911C106.652 5.34058e-05 106.97 0.309463 106.97 1.03141V88.9032C106.97 128.714 91.1893 148 51.4726 148C16.9456 148 -0.00020447 128.404 -0.00020447 95.0913V77.0426C-0.00020447 76.3206 0.317529 76.0112 1.05891 76.0112H51.9519C52.6933 76.0112 52.8036 75.9866 53.4849 76.4833C53.5602 76.5381 53.8256 76.7229 53.8256 76.8144C53.8256 76.9799 53.8256 77.0426 53.8256 77.0426C53.8256 77.0426 53.8256 77.0426 53.8256 77.0426V114.89L24.3594 94.06C24.3594 114.171 33.2559 125.31 49.1426 125.31C67.3593 125.31 76.2558 114.997 76.2558 91.9973V1.03141C76.2558 0.309463 76.5736 5.34058e-05 77.315 5.34058e-05Z" fill="#E7E7E7"/>
<path d="M165.206 105.302C164.652 107.912 163.682 110.201 162.297 112.216C157.956 118.536 149.92 121.97 139.298 121.97C123.458 121.97 113.159 114.048 113.159 99.8524V92.7546C113.159 79.017 123.458 70.6829 139.668 70.6829C155.37 70.6829 164.19 79.6581 165.299 91.1977C165.622 94.4489 165.668 95.6395 165.668 99.4861C165.668 99.715 165.53 99.8524 165.206 99.8524H132.048V101.226C132.048 108.965 134.957 110.98 139.668 110.98C144.055 110.98 146.456 108.919 147.288 105.164C147.334 104.981 147.472 104.89 147.796 104.89H164.837C165.16 104.89 165.252 105.027 165.206 105.302ZM139.483 81.6729C135.28 81.6729 132.048 84.7868 132.048 91.3809V92.663H147.057C146.826 85.1074 143.963 81.6729 139.483 81.6729Z" fill="#E7E7E7"/>
<path d="M205.056 120.093C204.133 119.039 203.163 117.666 202.47 115.925C198.96 119.635 193.372 121.97 186.306 121.97C175.869 121.97 168.849 117.986 168.849 108.141C168.849 99.6234 174.068 94.0368 190.047 92.2051C198.545 91.2435 201.546 89.6866 201.546 87.2596V85.9774C201.546 83.4131 199.561 81.673 195.727 81.673C191.525 81.673 189.908 84.5579 189.724 87.9923C189.724 88.267 189.585 88.4044 189.262 88.4044H172.175C171.851 88.4044 171.759 88.267 171.759 87.9923C173.191 77.3227 182.15 70.6829 197.113 70.6829C212.491 70.6829 219.973 76.2237 219.973 88.1296V110.843C219.973 115.147 220.989 118.123 222.652 120.047C222.836 120.276 222.79 120.367 222.467 120.367H205.795C205.426 120.367 205.241 120.276 205.056 120.093ZM187.738 106.309C187.738 109.606 189.493 111.346 192.956 111.346C197.806 111.346 201.546 107.866 201.546 100.814V97.7002C200.115 98.5702 198.037 99.0739 195.681 99.4861C190.278 100.402 187.738 102.279 187.738 106.309Z" fill="#E7E7E7"/>
<path d="M228.049 72.2856H245.598C245.922 72.2856 246.06 72.423 246.06 72.7435V79.7039C248.831 74.0257 254.558 70.6829 261.531 70.6829C271.737 70.6829 277.464 75.949 277.464 88.7707V119.909C277.464 120.23 277.325 120.367 277.002 120.367H258.991C258.668 120.367 258.529 120.23 258.529 119.909V90.465C258.529 85.6111 257.098 83.3215 253.449 83.3215C249.478 83.3215 246.522 87.2596 246.522 96.8759V119.909C246.522 120.23 246.384 120.367 246.06 120.367H228.049C227.726 120.367 227.587 120.23 227.587 119.909V72.7435C227.587 72.423 227.726 72.2856 228.049 72.2856Z" fill="#E7E7E7"/>
<path d="M284.302 72.2856H301.851C302.174 72.2856 302.313 72.423 302.313 72.7435V79.7039C305.084 74.0257 310.81 70.6829 317.784 70.6829C327.99 70.6829 333.716 75.949 333.716 88.7707V119.909C333.716 120.23 333.578 120.367 333.255 120.367H315.244C314.92 120.367 314.782 120.23 314.782 119.909V90.465C314.782 85.6111 313.35 83.3215 309.702 83.3215C305.73 83.3215 302.774 87.2596 302.774 96.8759V119.909C302.774 120.23 302.636 120.367 302.313 120.367H284.302C283.978 120.367 283.84 120.23 283.84 119.909V72.7435C283.84 72.423 283.978 72.2856 284.302 72.2856Z" fill="#E7E7E7"/>
<path d="M391.113 105.302C390.559 107.912 389.589 110.201 388.204 112.216C383.863 118.536 375.827 121.97 365.205 121.97C349.365 121.97 339.066 114.048 339.066 99.8524V92.7546C339.066 79.017 349.365 70.6829 365.575 70.6829C381.276 70.6829 390.097 79.6581 391.206 91.1977C391.529 94.4489 391.575 95.6395 391.575 99.4861C391.575 99.715 391.436 99.8524 391.113 99.8524H357.955V101.226C357.955 108.965 360.864 110.98 365.575 110.98C369.962 110.98 372.363 108.919 373.195 105.164C373.241 104.981 373.379 104.89 373.703 104.89H390.744C391.067 104.89 391.159 105.027 391.113 105.302ZM365.39 81.673C361.187 81.673 357.955 84.7868 357.955 91.3809V92.663H372.964C372.733 85.1074 369.869 81.673 365.39 81.673Z" fill="#E7E7E7"/>
<path d="M569.866 100.145C569.67 103.091 569.081 105.891 568.1 108.402C564.864 116.562 557.213 121.97 545.1 121.97C527.789 121.97 519.06 112.989 519.06 98.6486V91.1645C519.06 76.824 527.887 67.8914 545.199 67.8914C557.508 67.8914 564.913 72.7199 567.904 81.4111C568.738 83.8736 569.228 86.6258 569.375 89.6677C569.375 89.9091 569.228 90.054 568.885 90.054H556.674C556.331 90.054 556.134 89.9091 556.134 89.716C556.085 87.9295 555.742 86.3844 555.203 85.0807C553.781 81.7008 550.887 79.9625 547.111 79.9625C542.06 79.9625 539.167 83.5839 539.167 91.5025V98.3106C539.167 105.891 542.55 109.899 547.847 109.899C551.329 109.899 553.928 108.112 555.399 105.215C556.135 103.767 556.576 102.029 556.625 100.097C556.625 99.904 556.821 99.7592 557.164 99.7592H569.375C569.719 99.7592 569.866 99.904 569.866 100.145Z" fill="#E7E7E7"/>
<path d="M606.937 107.421V119.782C606.937 120.12 606.79 120.265 606.447 120.313C585.163 122.824 577.121 118.14 577.121 104.572V79.8504H571.236C570.893 79.8504 570.746 79.7056 570.746 79.3676V70.0487C570.746 69.7107 570.893 69.5659 571.236 69.5659H577.121V57.9776C577.121 57.6396 577.268 57.4948 577.611 57.4948H596.492C596.835 57.4948 596.982 57.6396 596.982 57.9776V69.5659H606.202C606.545 69.5659 606.692 69.7107 606.692 70.0487V79.3676C606.692 79.7056 606.545 79.8504 606.202 79.8504H596.982V101.82C596.982 107.276 600.954 107.855 606.496 106.986C606.79 106.938 606.937 107.083 606.937 107.421Z" fill="#E7E7E7"/>
<path d="M663.639 120.265H645.102C644.759 120.265 644.611 120.12 644.611 119.782V112.298C641.669 118.381 635.539 121.954 628.134 121.954C617.247 121.954 611.215 116.402 611.215 102.882V70.0487C611.215 69.7107 611.362 69.5659 611.705 69.5659H630.782C631.125 69.5659 631.272 69.7107 631.272 70.0487V101.096C631.321 106.214 632.842 108.628 636.667 108.628C640.933 108.628 644.072 104.476 644.072 94.3358V70.0487C644.072 69.7107 644.219 69.5659 644.562 69.5659H663.639C663.982 69.5659 664.129 69.7107 664.129 70.0487V119.782C664.129 120.12 663.982 120.265 663.639 120.265Z" fill="#E7E7E7"/>
<path d="M434.591 121.206C434.435 121.588 434.202 121.97 433.581 121.97H409.738C409.428 121.97 409.039 121.817 409.195 121.206L446.395 15.7638C446.628 15.1526 447.017 14.9998 447.405 14.9998H480.024C480.49 14.9998 480.878 15.229 481.033 15.7638L519.011 121.206C519.089 121.512 519.166 121.97 518.467 121.97H487.402C487.091 121.97 486.625 121.894 486.392 121.206L478.704 98.2838H441.969L434.591 121.206ZM459.909 42.2008L447.405 81.2449H473.034L459.909 42.2008Z" fill="#E7E7E7"/>
</svg>
