<svg width="200" height="200" viewBox="0 0 200 200" fill="none" xmlns="http://www.w3.org/2000/svg">
<path d="M65 98.5V91.5C65 84.8726 59.6274 79.5 53 79.5H26.5C19.8726 79.5 14.5 84.8726 14.5 91.5V170.5C14.5 177.127 19.8726 182.5 26.5 182.5H53C59.6274 182.5 65 177.127 65 170.5V157M65 98.5C84 86 118.9 41.9 128.5 17.5C157.5 17.5 153.5 56 129.5 82.5H163.664C177.547 82.5 187.96 95.2011 185.237 108.815L174.067 164.665C171.997 175.016 162.887 182.442 152.332 182.417C132.143 182.371 105.542 182.408 87.128 182.446C75.1196 182.471 65.3112 172.871 65.0758 160.865L65 157M65 98.5V157" stroke="black" stroke-width="12" stroke-linejoin="round"/>
</svg>
