<svg width="200" height="200" viewBox="0 0 200 200" fill="none" xmlns="http://www.w3.org/2000/svg">
<rect x="50" y="61" width="100" height="78" rx="10" stroke="#A9A9A9" stroke-width="10" stroke-linejoin="round"/>
<path d="M62 122V111.687C62 110.434 62.4705 109.227 63.3184 108.304L77.8384 92.5036C79.7917 90.3781 83.134 90.3435 85.1308 92.4282L91.0202 98.5769C93.0431 100.689 96.4391 100.621 98.3765 98.4307L112.871 82.0406C114.799 79.8603 118.175 79.7812 120.203 81.8689L135.586 97.7039C136.493 98.6371 137 99.8869 137 101.188V122C137 124.761 134.761 127 132 127H67C64.2386 127 62 124.761 62 122Z" fill="#A9A9A9"/>
<circle cx="67.5" cy="78.5" r="7.5" fill="#A9A9A9"/>
</svg>
